<mxfile host="app.diagrams.net" agent="Mozilla/5.0 (Windows NT 10.0; Win64; x64) AppleWebKit/537.36 (KHTML, like Gecko) Chrome/137.0.0.0 Safari/537.36" version="27.1.6">
  <diagram name="PÃ¡gina-1" id="bfNclRx6qYKhGHA40akg">
    <mxGraphModel dx="1106" dy="611" grid="1" gridSize="10" guides="1" tooltips="1" connect="1" arrows="1" fold="1" page="1" pageScale="1" pageWidth="827" pageHeight="1169" math="0" shadow="0">
      <root>
        <mxCell id="0" />
        <mxCell id="1" parent="0" />
        <mxCell id="FM03_QXCqgYBUGcsR0oJ-1" value="Diagrama de Atividade - Criar Post" style="shape=umlFrame;whiteSpace=wrap;html=1;pointerEvents=0;width=260;height=30;" parent="1" vertex="1">
          <mxGeometry x="160" y="140" width="560" height="210" as="geometry" />
        </mxCell>
        <mxCell id="V2BL3dfR2J6sjTiIpj4a-9" value="" style="edgeStyle=orthogonalEdgeStyle;rounded=0;orthogonalLoop=1;jettySize=auto;html=1;" edge="1" parent="1" source="FM03_QXCqgYBUGcsR0oJ-2" target="V2BL3dfR2J6sjTiIpj4a-1">
          <mxGeometry relative="1" as="geometry" />
        </mxCell>
        <mxCell id="FM03_QXCqgYBUGcsR0oJ-2" value="" style="ellipse;html=1;shape=startState;fillColor=#000000;strokeColor=#ff0000;" parent="1" vertex="1">
          <mxGeometry x="190" y="200" width="30" height="30" as="geometry" />
        </mxCell>
        <mxCell id="V2BL3dfR2J6sjTiIpj4a-10" value="" style="edgeStyle=orthogonalEdgeStyle;rounded=0;orthogonalLoop=1;jettySize=auto;html=1;" edge="1" parent="1" source="V2BL3dfR2J6sjTiIpj4a-1" target="V2BL3dfR2J6sjTiIpj4a-3">
          <mxGeometry relative="1" as="geometry" />
        </mxCell>
        <mxCell id="V2BL3dfR2J6sjTiIpj4a-1" value="Clicar em Adicionar Post" style="rounded=1;whiteSpace=wrap;html=1;arcSize=40;fontColor=#000000;fillColor=#ffffc0;strokeColor=#ff0000;" vertex="1" parent="1">
          <mxGeometry x="260" y="195" width="120" height="40" as="geometry" />
        </mxCell>
        <mxCell id="V2BL3dfR2J6sjTiIpj4a-11" value="" style="edgeStyle=orthogonalEdgeStyle;rounded=0;orthogonalLoop=1;jettySize=auto;html=1;" edge="1" parent="1" source="V2BL3dfR2J6sjTiIpj4a-3" target="V2BL3dfR2J6sjTiIpj4a-4">
          <mxGeometry relative="1" as="geometry" />
        </mxCell>
        <mxCell id="V2BL3dfR2J6sjTiIpj4a-3" value="Adicionar Titulo" style="rounded=1;whiteSpace=wrap;html=1;arcSize=40;fontColor=#000000;fillColor=#ffffc0;strokeColor=#ff0000;" vertex="1" parent="1">
          <mxGeometry x="413.5" y="195" width="120" height="40" as="geometry" />
        </mxCell>
        <mxCell id="V2BL3dfR2J6sjTiIpj4a-12" value="" style="edgeStyle=orthogonalEdgeStyle;rounded=0;orthogonalLoop=1;jettySize=auto;html=1;" edge="1" parent="1" source="V2BL3dfR2J6sjTiIpj4a-4" target="V2BL3dfR2J6sjTiIpj4a-5">
          <mxGeometry relative="1" as="geometry" />
        </mxCell>
        <mxCell id="V2BL3dfR2J6sjTiIpj4a-4" value="Adicionar Conteudo" style="rounded=1;whiteSpace=wrap;html=1;arcSize=40;fontColor=#000000;fillColor=#ffffc0;strokeColor=#ff0000;" vertex="1" parent="1">
          <mxGeometry x="570" y="195" width="120" height="40" as="geometry" />
        </mxCell>
        <mxCell id="V2BL3dfR2J6sjTiIpj4a-13" value="" style="edgeStyle=orthogonalEdgeStyle;rounded=0;orthogonalLoop=1;jettySize=auto;html=1;" edge="1" parent="1" source="V2BL3dfR2J6sjTiIpj4a-5" target="V2BL3dfR2J6sjTiIpj4a-6">
          <mxGeometry relative="1" as="geometry" />
        </mxCell>
        <mxCell id="V2BL3dfR2J6sjTiIpj4a-5" value="Publicar Post" style="rounded=1;whiteSpace=wrap;html=1;arcSize=40;fontColor=#000000;fillColor=#ffffc0;strokeColor=#ff0000;" vertex="1" parent="1">
          <mxGeometry x="570" y="270" width="120" height="40" as="geometry" />
        </mxCell>
        <mxCell id="V2BL3dfR2J6sjTiIpj4a-14" value="" style="edgeStyle=orthogonalEdgeStyle;rounded=0;orthogonalLoop=1;jettySize=auto;html=1;" edge="1" parent="1" source="V2BL3dfR2J6sjTiIpj4a-6" target="V2BL3dfR2J6sjTiIpj4a-7">
          <mxGeometry relative="1" as="geometry" />
        </mxCell>
        <mxCell id="V2BL3dfR2J6sjTiIpj4a-6" value="Post salvo no Banco de Dados" style="rounded=1;whiteSpace=wrap;html=1;arcSize=40;fontColor=#000000;fillColor=#ffffc0;strokeColor=#ff0000;" vertex="1" parent="1">
          <mxGeometry x="414" y="270" width="120" height="40" as="geometry" />
        </mxCell>
        <mxCell id="V2BL3dfR2J6sjTiIpj4a-15" value="" style="edgeStyle=orthogonalEdgeStyle;rounded=0;orthogonalLoop=1;jettySize=auto;html=1;" edge="1" parent="1" source="V2BL3dfR2J6sjTiIpj4a-7" target="V2BL3dfR2J6sjTiIpj4a-8">
          <mxGeometry relative="1" as="geometry" />
        </mxCell>
        <mxCell id="V2BL3dfR2J6sjTiIpj4a-7" value="Retorna para a Timeline" style="rounded=1;whiteSpace=wrap;html=1;arcSize=40;fontColor=#000000;fillColor=#ffffc0;strokeColor=#ff0000;" vertex="1" parent="1">
          <mxGeometry x="260" y="270" width="120" height="40" as="geometry" />
        </mxCell>
        <mxCell id="V2BL3dfR2J6sjTiIpj4a-8" value="" style="ellipse;html=1;shape=endState;fillColor=#000000;strokeColor=#ff0000;" vertex="1" parent="1">
          <mxGeometry x="190" y="275" width="30" height="30" as="geometry" />
        </mxCell>
      </root>
    </mxGraphModel>
  </diagram>
</mxfile>
